{"title":"China.Gate.1957.720p.BluRay.x264.AC3-KESH.mkv","uid":10484066,"size":4447710012,"categoryP":"video","categoryS":"hd___movies","magnet":"?xt=urn:btih:eca61a4c6a7b6bb6cba7b098c714cb953c6b4eb0&amp;dn=China.Gate.1957.720p.BluRay.x264.AC3-KESH.mkv&amp;tr=udp%3A%2F%2Ftracker.openbittorrent.com%3A80&amp;tr=udp%3A%2F%2Fopen.demonii.com%3A1337&amp;tr=udp%3A%2F%2Ftracker.coppersurfer.tk%3A6969&amp;tr=udp%3A%2F%2Fexodus.desync.com%3A6969","seeders":2,"leechers":0,"uploader":"rpessoa","files":1,"time":1404439399,"description":"Near the end of the French phase of the Vietnam War, a group of mercenaries are recruited to travel through enemy territory to the Chinese border, to blow up an arms depot. A Eurasian smuggler, Lucky Legs, agrees to use her connections to help them, in return getting her son into America. The racist father of the boy, Sergeant Brock, is also part of the multinational group. Lucky Legs must use the love of a Eurasian guerilla leader, Major Cham, to get access to the base. Will they destroy the base, and will Brock overcome his racism before Lucky Legs makes The Ultimate Sacrifice? From IMDb\n &lt;a href=&quot;\nhttp://www.imdb.com/title/tt0050252/&quot; rel=&quot;nofollow&quot; target=&quot;_NEW&quot;&gt;\nhttp://www.imdb.com/title/tt0050252/&lt;/a&gt;\n\nGeneral\nUnique ID : 238824821990384292631615427871834362414 (0xB3ABFCD43BB9DF90A9A43430FB8BD22E)\nComplete name : China.Gate.1957.720p.BluRay.x264.AC3-KESH.mkv\nFormat : Matroska\nFormat version : Version 4 / Version 2\nFile size : 4.14 GiB\nDuration : 1h 35mn\nOverall bit rate : 6 194 Kbps\nEncoded date : UTC 2013-08-02 03:30:43\nWriting application : mkvmerge v6.3.0 ('You can't stop me!') built on Jun 28 2013 20:09:41\nWriting library : libebml v1.3.0 + libmatroska v1.4.0\n\nVideo\nID : 1\nFormat : AVC\nFormat/Info : Advanced Video Codec\nFormat profile : &lt;a class=&quot;__cf_email__&quot; href=&quot;/cdn-cgi/l/email-protection&quot; data-cfemail=&quot;135b7a747b535f273d22&quot;&gt;[email&amp;#160;protected]&lt;/a&gt;&lt;script cf-hash='f9e31' type=&quot;text/javascript&quot;&gt;\n/* &lt;![CDATA[ */!function(){try{var t=&quot;currentScript&quot;in document?document.currentScript:function(){for(var t=document.getElementsByTagName(&quot;script&quot;),e=t.length;e--;)if(t[e].getAttribute(&quot;cf-hash&quot;))return t[e]}();if(t&amp;&amp;t.previousSibling){var e,r,n,i,c=t.previousSibling,a=c.getAttribute(&quot;data-cfemail&quot;);if(a){for(e=&quot;&quot;,r=parseInt(a.substr(0,2),16),n=2;a.length-n;n+=2)i=parseInt(a.substr(n,2),16)^r,e+=String.fromCharCode(i);e=document.createTextNode(e),c.parentNode.replaceChild(e,c)}}}catch(u){}}();/* ]]&gt; */&lt;/script&gt;\nFormat settings, CABAC : Yes\nFormat settings, ReFrames : 12 frames\nCodec ID : V_MPEG4/ISO/AVC\nDuration : 1h 35mn\nBit rate : 6 000 Kbps\nWidth : 1 280 pixels\nHeight : 542 pixels\nDisplay aspect ratio : 2.35:1\nFrame rate : 23.976 fps\nColor space : YUV\nChroma subsampling : 4:2:0\nBit depth : 8 bits\nScan type : Progressive\nBits/(Pixel*Frame) : 0.361\nStream size : 3.93 GiB (95%)\nTitle : China.Gate.1957.720p.BluRay.x264.AC3-KESH\nWriting library : x264 core 130 r2273 b3065e6\nEncoding settings : cabac=1 / ref=12 / deblock=1:0:0 / analyse=0x3:0x133 / me=umh / subme=10 / psy=1 / psy_rd=1.00:0.00 / mixed_ref=1 / me_range=24 / chroma_me=1 / trellis=2 / 8x8dct=1 / cqm=0 / deadzone=21,11 / fast_pskip=1 / chroma_qp_offset=-2 / threads=12 / lookahead_threads=2 / sliced_threads=0 / nr=0 / decimate=1 / interlaced=0 / bluray_compat=0 / constrained_intra=0 / bframes=8 / b_pyramid=2 / b_adapt=2 / b_bias=0 / direct=3 / weightb=1 / open_gop=0 / weightp=2 / keyint=240 / keyint_min=24 / scenecut=40 / intra_refresh=0 / rc_lookahead=60 / rc=2pass / mbtree=1 / bitrate=6000 / ratetol=1.0 / qcomp=0.60 / qpmin=0 / qpmax=69 / qpstep=4 / cplxblur=20.0 / qblur=0.5 / vbv_maxrate=62500 / vbv_bufsize=78125 / nal_hrd=none / ip_ratio=1.40 / aq=1:1.00\nLanguage : English\nDefault : Yes\nForced : No\nColor primaries : BT.709-5, BT.1361, IEC 61966-2-4, SMPTE RP177\nTransfer characteristics : BT.709-5, BT.1361\nMatrix coefficients : BT.709-5, BT.1361, IEC 61966-2-4 709, SMPTE RP177\n\nAudio\nID : 2\nFormat : AC-3\nFormat/Info : Audio Coding 3\nMode extension : CM (complete main)\nCodec ID : A_AC3\nDuration : 1h 35mn\nBit rate mode : Constant\nBit rate : 192 Kbps\nChannel(s) : 1 channel\nChannel positions : Front: C\nSampling rate : 48.0 KHz\nBit depth : 16 bits\nCompression mode : Lossy\nStream size : 131 MiB (3%)\nLanguage : English\nDefault : Yes\nForced : No\n\nMenu\n00:00:00.000 : en:Chapter 1\n00:08:10.406 : en:Chapter 2\n00:22:36.063 : en:Chapter 3\n00:35:18.616 : en:Chapter 4\n00:48:14.141 : en:Chapter 5\n01:01:10.041 : en:Chapter 6\n01:09:18.654 : en:Chapter 7\n01:20:43.922 : en:Chapter 8","torrent":{"xt":"urn:btih:eca61a4c6a7b6bb6cba7b098c714cb953c6b4eb0","amp;dn":"China.Gate.1957.720p.BluRay.x264.AC3-KESH.mkv","amp;tr":["udp%3A%2F%2Ftracker.openbittorrent.com%3A80","udp%3A%2F%2Fopen.demonii.com%3A1337","udp%3A%2F%2Ftracker.coppersurfer.tk%3A6969","udp%3A%2F%2Fexodus.desync.com%3A6969"],"infoHash":"eca61a4c6a7b6bb6cba7b098c714cb953c6b4eb0","infoHashBuffer":{"type":"Buffer","data":[236,166,26,76,106,123,107,182,203,167,176,152,199,20,203,149,60,107,78,176]},"announce":[],"urlList":[]}}